<?xml version="1.0" encoding="UTF-8"?>
<svg id="Layer_2" data-name="Layer 2" xmlns="http://www.w3.org/2000/svg" viewBox="0 0 218.92 54.12">
  <defs>
    <style>
      .cls-1 {
        fill: #00affc;
      }

      .cls-1, .cls-2, .cls-3, .cls-4 {
        stroke-width: 0px;
      }

      .cls-2 {
        fill: #fea500;
      }

      .cls-3 {
        fill: #fff;
      }

      .cls-4 {
        fill: #821bef;
      }
    </style>
  </defs>
  <g id="Layer_1-2" data-name="Layer 1">
    <g>
      <rect class="cls-1" x="63.88" y="16.91" width="9.19" height="9.19"/>
      <rect class="cls-1" x="63.88" y="26.11" width="9.19" height="9.19"/>
      <path class="cls-1" d="M77.62,44.49c-2.51-.03-4.55-2.07-4.55-4.6v-4.6h-9.19v9.21c0,5.07,4.11,9.18,9.18,9.18h9.21v-9.19h-4.65Z"/>
      <rect class="cls-1" x="73.07" y="26.11" width="9.19" height="9.19"/>
      <path class="cls-1" d="M.23,0h-.23v53.69h21.63v-9.16h-12.47V9.16h194.36v2.6h9.16V0H.23Z"/>
      <path class="cls-3" d="M86.45,30.19c1.18-2.36,2.79-4.18,4.83-5.45,2.04-1.27,4.31-1.91,6.82-1.91,2.14,0,4.03.44,5.64,1.31,1.62.87,2.86,2.02,3.73,3.43v-4.31h9.32v30.43h-9.32v-4.31c-.91,1.42-2.17,2.56-3.79,3.44-1.62.87-3.5,1.31-5.64,1.31-2.47,0-4.73-.65-6.76-1.94-2.04-1.29-3.64-3.13-4.83-5.51-1.18-2.38-1.77-5.13-1.77-8.26s.59-5.87,1.77-8.23ZM105.54,32.97c-1.29-1.34-2.86-2.02-4.72-2.02s-3.43.66-4.72,1.99c-1.29,1.33-1.94,3.15-1.94,5.48s.64,4.17,1.94,5.53c1.29,1.36,2.86,2.04,4.72,2.04s3.43-.67,4.72-2.02c1.29-1.34,1.94-3.18,1.94-5.51s-.65-4.16-1.94-5.51Z"/>
      <path class="cls-3" d="M129.77,13.34v40.35h-9.32V13.34h9.32Z"/>
      <path class="cls-3" d="M162.94,40.71h-21.1c.14,1.89.75,3.34,1.83,4.33,1.07,1,2.39,1.5,3.95,1.5,2.33,0,3.94-.98,4.85-2.94h9.92c-.51,2-1.43,3.8-2.75,5.4-1.33,1.6-2.99,2.85-4.99,3.76-2,.91-4.23,1.36-6.71,1.36-2.98,0-5.63-.64-7.96-1.91-2.33-1.27-4.14-3.09-5.45-5.45-1.31-2.36-1.96-5.13-1.96-8.29s.64-5.92,1.94-8.29c1.29-2.36,3.1-4.18,5.43-5.45,2.33-1.27,5-1.91,8.02-1.91s5.56.62,7.85,1.85c2.29,1.24,4.08,3,5.37,5.29,1.29,2.29,1.94,4.96,1.94,8.02,0,.87-.05,1.78-.16,2.73ZM153.56,35.53c0-1.6-.55-2.87-1.64-3.82-1.09-.94-2.45-1.42-4.09-1.42s-2.88.45-3.95,1.36c-1.07.91-1.74,2.2-1.99,3.87h11.67Z"/>
      <path class="cls-3" d="M192.47,26.4c2.13,2.31,3.19,5.48,3.19,9.51v17.78h-9.27v-16.52c0-2.04-.53-3.62-1.58-4.74-1.05-1.13-2.47-1.69-4.25-1.69s-3.2.56-4.25,1.69c-1.05,1.13-1.58,2.71-1.58,4.74v16.52h-9.32v-30.43h9.32v4.04c.94-1.34,2.22-2.41,3.82-3.19,1.6-.78,3.4-1.17,5.4-1.17,3.56,0,6.41,1.15,8.53,3.46Z"/>
      <path class="cls-3" d="M215.59,45.78c-1.02,0-1.75-.2-2.18-.6-.44-.4-.65-1.05-.65-1.96v-12.21h6.11v-7.74h-6.11v-7.42h-9.32v7.42h-6.16v7.74h6.16v12.1c0,3.74.95,6.44,2.84,8.1,1.89,1.65,4.53,2.48,7.91,2.48h4.74v-7.91h-3.33Z"/>
      <rect class="cls-4" x="54.68" y="26.11" width="9.19" height="9.19"/>
      <rect class="cls-2" x="36.29" y="26.11" width="9.19" height="9.19"/>
      <path class="cls-1" d="M40.84,44.49c-2.51-.03-4.55-2.07-4.55-4.6v-4.6h0v-18.39h-9.19v9.19h-9.19v9.19h9.19v9.21c0,5.07,4.11,9.18,9.18,9.18h9.21v-9.19h-4.65Z"/>
    </g>
  </g>
</svg>