<?xml version="1.0" encoding="utf-8"?>
<!-- Generator: Adobe Illustrator 16.0.0, SVG Export Plug-In . SVG Version: 6.00 Build 0)  -->
<!DOCTYPE svg PUBLIC "-//W3C//DTD SVG 1.1//EN" "http://www.w3.org/Graphics/SVG/1.1/DTD/svg11.dtd">
<svg version="1.1" id="Layer_1" xmlns="http://www.w3.org/2000/svg" xmlns:xlink="http://www.w3.org/1999/xlink" x="0px" y="0px"
	 width="339px" height="264px" viewBox="0 61 339 264" enable-background="new 0 61 339 264" xml:space="preserve">
<g>
	<defs>
		<rect id="SVGID_1_" width="339" height="325"/>
	</defs>
	<clipPath id="SVGID_2_">
		<use xlink:href="#SVGID_1_"  overflow="visible"/>
	</clipPath>
	<g clip-path="url(#SVGID_2_)">
		<path fill="#FFBA55" d="M64.301,155.104c-0.033,0-3.323,0.031-7.917-0.836c-4.238-0.8-10.489-2.548-16.194-6.337
			c-5.65-3.751-12.976-5.064-18.126-5.506c-5.586-0.479-9.886-0.063-9.929-0.058l-0.036-0.354c0.043-0.004,4.375-0.424,9.994,0.057
			c5.192,0.445,12.581,1.772,18.294,5.564c5.653,3.753,11.85,5.488,16.054,6.281c4.56,0.862,7.822,0.833,7.855,0.833L64.301,155.104
			z"/>
		<path fill="#FFBA55" d="M68.395,157.21c-3.765,4.247-19.759,6.873-29.252,1.917c-5.246-2.739-9.407-5.938-13.078-8.763
			c-4.786-3.681-8.917-6.859-13.985-8.002l-0.443-0.101l0.393-0.228c0.074-0.044,7.502-4.289,18.103-4.998
			c6.228-0.415,12.318,0.45,18.101,2.574c7.227,2.654,13.991,7.29,20.103,13.779c1.076,1.144,1.17,2.376,0.268,3.563
			C68.539,157.041,68.469,157.127,68.395,157.21z M12.614,142.126c4.937,1.241,8.995,4.363,13.668,7.957
			c3.66,2.815,7.808,6.006,13.026,8.729c4.287,2.237,10.447,3.118,16.9,2.413c5.464-0.595,10.177-2.287,11.92-4.254
			c0.068-0.078,0.131-0.155,0.191-0.232c0.792-1.045,0.711-2.088-0.245-3.103c-13.748-14.595-28.201-16.889-37.905-16.244
			C21.047,138.001,14.294,141.247,12.614,142.126z"/>
		<path fill="#FFBA55" d="M25.375,137.712l-0.295,0.201l3.707,5.448l0.295-0.2L25.375,137.712z"/>
		<path fill="#FFBA55" d="M33.286,144.352l-6.681,6.16l0.242,0.262l6.681-6.16L33.286,144.352z"/>
		<path fill="#FFBA55" d="M39.701,137.564l-0.355,0.026l0.762,10.204l0.355-0.027L39.701,137.564z"/>
		<path fill="#FFBA55" d="M62.563,140.421c-0.043-0.014-4.333-1.543-9.797-5.288c-5.042-3.457-12.146-9.565-17.367-19.038
			c-6.051-10.98-12.631-17.905-17.087-21.78c-4.827-4.199-8.268-5.821-8.302-5.837l0.144-0.311c0.034,0.016,3.509,1.652,8.37,5.878
			c4.479,3.895,11.096,10.853,17.175,21.887c5.187,9.414,12.25,15.486,17.26,18.921c5.426,3.721,9.675,5.233,9.716,5.249
			L62.563,140.421z"/>
		<path fill="#FFBA55" d="M75.652,139.56l-0.967,0.176c-0.031,0.005-3.201,0.574-8.08,0.487c-4.501-0.079-11.425-0.746-18.848-3.474
			c-8.345-3.066-15.607-8.056-21.584-14.834c-7.466-8.464-12.934-19.755-16.254-33.557l-0.038-0.156l0.153-0.049
			c0.056-0.018,5.661-1.726,12.984,0.032c4.299,1.032,8.345,3.039,12.025,5.963c4.593,3.65,8.625,8.752,11.981,15.161
			c7.563,14.438,14.696,21.856,19.347,25.535c5.02,3.97,8.28,4.548,8.312,4.553L75.652,139.56z M10.29,88.439
			c7.502,30.995,24.566,43.201,37.57,47.984c7.378,2.713,14.261,3.377,18.737,3.458c3.402,0.061,5.964-0.198,7.203-0.36
			c-1.284-0.405-3.988-1.516-7.641-4.407c-4.677-3.701-11.847-11.153-19.437-25.646c-7.547-14.407-17.1-19.346-23.783-20.949
			C16.375,86.947,11.229,88.182,10.29,88.439z"/>
		<path fill="#FFBA55" d="M24.099,118.981l-0.015,0.341l13.712,0.598l0.015-0.341L24.099,118.981z"/>
		<path fill="#FFBA55" d="M33.618,93.16h-0.342v19.237h0.342V93.16z"/>
		<path fill="#FFBA55" d="M13.559,99.641l-0.018,0.341l11.105,0.58l0.018-0.341L13.559,99.641z"/>
		<path fill="#8F8F8F" d="M142.011,277.641h25.468v-77.263h-25.468V277.641z"/>
		<path fill="#F0F0F0" d="M55.973,237.594h197.541c6.178,0,11.187-5.002,11.187-11.172V93.814c0-6.169-5.007-11.172-11.187-11.172
			H55.973c-6.177,0-11.186,5.001-11.186,11.172v132.61C44.787,232.593,49.796,237.594,55.973,237.594z"/>
		<path fill="#FFFFFF" d="M53.403,213.313h202.685V66.15H53.403V213.313z"/>
		
			<linearGradient id="SVGID_3_" gradientUnits="userSpaceOnUse" x1="112.7808" y1="205.291" x2="196.7084" y2="296.6348" gradientTransform="matrix(1 0 0 -1 0 326)">
			<stop  offset="0" style="stop-color:#05C0F7"/>
			<stop  offset="1" style="stop-color:#43DA3B"/>
		</linearGradient>
		<path fill="url(#SVGID_3_)" d="M53.4,83.924h202.687V66.15H53.4V83.924z"/>
		<path fill="#CCCCCC" d="M231.422,224.424c0,3.913,3.734,7.086,8.342,7.086c4.606,0,8.34-3.173,8.34-7.086s-3.733-7.085-8.34-7.085
			C235.158,217.339,231.422,220.511,231.422,224.424z"/>
		<path fill="#CCCCCC" d="M212.031,274.723H97.457v5.832h114.574V274.723z"/>
		<path fill="#F5F7FF" d="M88.357,78.396H64.283c-1.336,0-2.418-1.081-2.418-2.415v-1.888c0-1.334,1.082-2.415,2.418-2.415h24.074
			c1.336,0,2.418,1.081,2.418,2.415v1.888C90.774,77.315,89.692,78.396,88.357,78.396z"/>
		<path fill="#E6E6E6" d="M152.666,106.359H68.25v3.643h84.416V106.359z"/>
		<path fill="#E6E6E6" d="M164.75,112.921h-96.5v3.643h96.5V112.921z"/>
		<path fill="#E6E6E6" d="M174.369,126.014H68.25v3.643h106.119V126.014z"/>
		<path fill="#78C2FF" d="M157.752,99.025H68.25v3.644h89.502V99.025z"/>
		<path fill="#E6E6E6" d="M146.957,132.575H68.25v3.643h78.707V132.575z"/>
		<path fill="#E6E6E6" d="M118.156,146.833H68.25v3.644h49.906V146.833z"/>
		<path fill="#E6E6E6" d="M157.912,153.396H68.25v3.643h89.662V153.396z"/>
		<path fill="#E6E6E6" d="M132.05,169.076h-63.8v3.643h63.8V169.076z"/>
		<path fill="#E6E6E6" d="M146.155,175.639H68.25v3.643h77.905V175.639z"/>
		<path fill="#E6E6E6" d="M153.53,191.316H68.25v3.644h85.28V191.316z"/>
		<path fill="#E6E6E6" d="M113.081,197.878H68.25v3.644h44.831V197.878z"/>
		<path fill="#78C2FF" d="M65.739,106.359h-2.667v10.205h2.667V106.359z"/>
		<path fill="#78C2FF" d="M65.739,126.014h-2.667v10.205h2.667V126.014z"/>
		<path fill="#78C2FF" d="M65.739,146.833h-2.667v10.206h2.667V146.833z"/>
		<path fill="#78C2FF" d="M65.739,169.076h-2.667v10.205h2.667V169.076z"/>
		<path fill="#78C2FF" d="M65.739,191.316h-2.667v10.205h2.667V191.316z"/>
		<path fill="#78C2FF" d="M209.613,203.718h-8.5c-1.688,0-3.059-1.368-3.059-3.056v-8.489c0-1.687,1.37-3.055,3.059-3.055h8.5
			c1.688,0,3.059,1.368,3.059,3.055v8.489C212.672,202.352,211.302,203.718,209.613,203.718z"/>
		<path fill="#F3F3F3" d="M204.898,199.634l-3.693-3.217c-0.303-0.265-0.335-0.724-0.071-1.024c0.265-0.303,0.724-0.336,1.027-0.07
			l2.612,2.273l3.727-4.15c0.268-0.299,0.729-0.323,1.027-0.055c0.3,0.268,0.324,0.729,0.057,1.026L204.898,199.634z"/>
		<path fill="#78C2FF" d="M209.348,181.484h-7.968c-1.837,0-3.331-1.492-3.331-3.327v-7.959c0-1.834,1.494-3.326,3.331-3.326h7.968
			c1.836,0,3.332,1.492,3.332,3.326v7.959C212.68,179.992,211.184,181.484,209.348,181.484z M201.378,167.798
			c-1.325,0-2.403,1.077-2.403,2.4v7.959c0,1.323,1.078,2.401,2.403,2.401h7.968c1.325,0,2.404-1.078,2.404-2.401v-7.959
			c0-1.323-1.079-2.4-2.404-2.4H201.378z"/>
		<path fill="#78C2FF" d="M231.354,159.243h-7.969c-1.836,0-3.33-1.492-3.33-3.326v-7.959c0-1.835,1.494-3.327,3.33-3.327h7.969
			c1.836,0,3.33,1.492,3.33,3.327v7.959C234.684,157.751,233.189,159.243,231.354,159.243z M223.385,145.557
			c-1.324,0-2.402,1.077-2.402,2.401v7.959c0,1.323,1.078,2.4,2.402,2.4h7.969c1.326,0,2.403-1.077,2.403-2.4v-7.959
			c0-1.324-1.077-2.401-2.403-2.401H223.385z"/>
		<path fill="#78C2FF" d="M231.354,203.725h-7.969c-1.836,0-3.33-1.492-3.33-3.326v-7.959c0-1.834,1.494-3.328,3.33-3.328h7.969
			c1.836,0,3.33,1.494,3.33,3.328v7.959C234.684,202.232,233.189,203.725,231.354,203.725z M223.385,190.038
			c-1.324,0-2.402,1.078-2.402,2.401v7.959c0,1.324,1.078,2.4,2.402,2.4h7.969c1.326,0,2.403-1.076,2.403-2.4v-7.959
			c0-1.323-1.077-2.401-2.403-2.401H223.385z"/>
		<path fill="#78C2FF" d="M231.619,181.477h-8.5c-1.688,0-3.059-1.367-3.059-3.055v-8.488c0-1.687,1.371-3.055,3.059-3.055h8.5
			c1.689,0,3.059,1.368,3.059,3.055v8.49C234.678,180.109,233.309,181.477,231.619,181.477z"/>
		<path fill="#F3F3F3" d="M226.907,177.393l-3.695-3.217c-0.302-0.264-0.334-0.723-0.069-1.025c0.265-0.301,0.724-0.334,1.025-0.069
			l2.613,2.274l3.726-4.15c0.269-0.298,0.729-0.323,1.029-0.057c0.298,0.269,0.323,0.729,0.055,1.027L226.907,177.393z"/>
		<path fill="#78C2FF" d="M209.613,159.236h-8.5c-1.688,0-3.059-1.368-3.059-3.055v-8.49c0-1.686,1.37-3.055,3.059-3.055h8.5
			c1.688,0,3.059,1.369,3.059,3.055v8.49C212.672,157.87,211.302,159.236,209.613,159.236z"/>
		<path fill="#F3F3F3" d="M204.898,155.152l-3.693-3.217c-0.303-0.264-0.335-0.723-0.071-1.025c0.265-0.302,0.724-0.334,1.027-0.07
			l2.612,2.275l3.727-4.152c0.268-0.299,0.729-0.324,1.027-0.056c0.3,0.268,0.324,0.728,0.057,1.027L204.898,155.152z"/>
		<path fill="#EEF0F7" d="M237.9,114.744c0,5.271-1.897,10.097-5.047,13.837c-4.06,4.82-10.033,7.672-16.487,7.672
			c-6.837,0-13.058-3.203-17.042-8.358c-2.818-3.637-4.494-8.199-4.494-13.151c0-11.879,9.641-21.511,21.536-21.511
			C228.259,93.233,237.9,102.863,237.9,114.744z"/>
		<path fill="#78C2FF" d="M231.768,126.276c-0.078-0.079-0.256-0.144-0.36-0.212c-0.009-0.006-0.013-0.009-0.021-0.013l-0.002,0.002
			c-0.945-0.521-3.716-1.896-9.18-3.463c-0.002,0-0.004-0.002-0.004-0.002c-0.992-0.302-1.741-0.498-1.998-0.565l-0.463-0.735
			c-0.075-0.743-0.059-1.849-0.038-2.59c0.769-0.892,1.464-2.285,1.854-4.459c0.125,0.093,0.221-0.112,0.221-0.112
			c-0.067-0.122,1.039-2.825,0.84-3.435c-0.113-0.345-0.344-0.302-0.524-0.201c0.027-0.158,0.054-0.322,0.083-0.496
			c0,0,0.439-4.143-1.66-6.452c-0.216-0.209-0.99-0.261-0.99-0.261c-3.371-1.03-5.396-0.57-6.66-0.029
			c-1.879,1.536-2.02,4.151-1.936,5.591c0.037,0.342,0.077,0.683,0.114,1.018c0,0.007,0.002,0.01,0.002,0.01
			c0.017,0.134,0.033,0.263,0.047,0.393c-0.176-0.108-0.405-0.164-0.532,0.178c-0.226,0.6,0.596,3.299,0.696,3.465
			c0,0,0.177,0.277,0.315,0.151c0.002,0,0.002-0.006,0.002-0.006c0.387,2.37,1.085,3.836,1.818,4.735
			c-0.055,0.962-0.193,2.093-0.291,2.816l-0.832,0.871c-0.045,0.014-0.09,0.028-0.135,0.045c0-0.004,0-0.006,0-0.006
			c-9.426,2.512-12.091,4.262-12.091,4.262c-0.235,0.146-0.479,0.536-0.722,1.115c3.941,5.098,10.133,8.358,17.043,8.358
			c6.443,0,12.418-2.843,16.486-7.671C232.449,127.591,232.156,126.661,231.768,126.276z"/>
		
			<linearGradient id="SVGID_4_" gradientUnits="userSpaceOnUse" x1="274.2109" y1="114.2217" x2="314.2285" y2="114.2217" gradientTransform="matrix(1 0 0 -1 0 326)">
			<stop  offset="0" style="stop-color:#40D5E6"/>
			<stop  offset="1" style="stop-color:#5577FF"/>
		</linearGradient>
		<path fill="url(#SVGID_4_)" d="M277.707,158.963c3.452-1.649,6.885,9.324,6.885,9.324c5.864,7.738,14.061-2.557,13.26,9.014
			c-1.402,20.248,23.332,6.368,11.923,27.506c-11.411,21.139,10.075,11.953,2.984,28.998c-7.092,17.045,2.1,37.374-8.569,29.02
			c0,0-9.396-20.579-19.086-26.947c-9.689-6.367,5.805-13.922,2.772-22.57c-4.403-12.56-15.013-12.067-7.364-25.564
			C288.162,174.244,265.979,164.566,277.707,158.963z"/>
		<path fill="#FFFFFF" d="M307.565,255.079c-4.626-3.25-10.04-25.892-10.361-39.376c-0.166-6.907-2.209-9.786-4.013-12.326
			c-1.726-2.427-3.215-4.521-2.346-9.336c1.657-9.198-2.701-13.169-2.746-13.208l0.504-0.574c0.194,0.169,4.733,4.265,2.994,13.917
			c-0.81,4.497,0.525,6.379,2.217,8.76c1.774,2.498,3.983,5.606,4.154,12.75c0.346,14.472,5.881,35.849,10.037,38.77
			L307.565,255.079z"/>
		
			<linearGradient id="SVGID_5_" gradientUnits="userSpaceOnUse" x1="303.5645" y1="91.917" x2="338.998" y2="91.917" gradientTransform="matrix(1 0 0 -1 0 326)">
			<stop  offset="0" style="stop-color:#40D5E6"/>
			<stop  offset="1" style="stop-color:#5577FF"/>
		</linearGradient>
		<path fill="url(#SVGID_5_)" d="M334.25,226.646c0.949,3.242,2.025,6.916-3.531,9.41c-1.179,0.529-2.252,0.95-3.201,1.322
			c-3.878,1.52-6.218,2.438-8.858,8.008c-0.512,1.079-0.963,2.1-1.399,3.09c-2.083,4.715-3.66,8.282-7.965,8.282
			c-0.598,0-1.246-0.069-1.955-0.212c-1.781-0.359-2.951-1.301-3.475-2.793c-1.247-3.563,1.642-9.347,3.985-12.136
			c0.038-0.048,3.964-4.838,3.546-11.479c-0.07-1.113-0.186-2.143-0.288-3.051c-0.296-2.628-0.509-4.525,0.623-5.794
			c0.995-1.117,2.918-1.603,6.429-1.619c6.156-0.028,8.59-2.575,10.545-4.618c0.83-0.869,1.615-1.689,2.567-2.209
			c3.067-1.673,6.317-1.918,7.726-0.584"/>
		
			<linearGradient id="SVGID_6_" gradientUnits="userSpaceOnUse" x1="304.3301" y1="91.2446" x2="334.2549" y2="91.2446" gradientTransform="matrix(1 0 0 -1 0 326)">
			<stop  offset="0" style="stop-color:#40D5E6"/>
			<stop  offset="1" style="stop-color:#5577FF"/>
		</linearGradient>
		<path fill="url(#SVGID_6_)" d="M331.64,213.516c-0.848,0.463-1.559,1.205-2.382,2.066c-2.056,2.15-4.614,4.827-11.096,4.857
			c-3.227,0.015-5.034,0.436-5.86,1.361c-0.903,1.014-0.706,2.771-0.434,5.202c0.103,0.917,0.22,1.958,0.292,3.089
			c0.438,6.954-3.552,11.813-3.721,12.016c-2.321,2.761-4.95,8.254-3.852,11.395c0.426,1.221,1.404,1.992,2.904,2.296
			c5.23,1.056,6.675-2.213,9.067-7.63c0.439-0.992,0.894-2.02,1.408-3.107c2.772-5.844,5.358-6.858,9.272-8.393
			c0.939-0.368,2.004-0.785,3.167-1.307c4.946-2.221,4.054-5.271,3.108-8.498"/>
		
			<linearGradient id="SVGID_7_" gradientUnits="userSpaceOnUse" x1="306.6602" y1="86.6631" x2="333.8213" y2="86.6631" gradientTransform="matrix(1 0 0 -1 0 326)">
			<stop  offset="0" style="stop-color:#40D5E6"/>
			<stop  offset="1" style="stop-color:#5577FF"/>
		</linearGradient>
		<path fill="url(#SVGID_7_)" d="M333.821,218.258c-0.065,0.012-6.525,1.201-7.711,5.352c-1.151,4.022-3.563,10.013-11.206,15.576
			c-6.501,4.733-7.472,21.81-7.48,21.982l-0.764-0.04c0.038-0.717,1.001-17.614,7.794-22.56c7.452-5.424,9.801-11.254,10.921-15.168
			c1.318-4.612,8.03-5.844,8.314-5.895"/>
		
			<linearGradient id="SVGID_8_" gradientUnits="userSpaceOnUse" x1="296.8496" y1="108.4951" x2="328.4814" y2="108.4951" gradientTransform="matrix(1 0 0 -1 0 326)">
			<stop  offset="0" style="stop-color:#40D5E6"/>
			<stop  offset="1" style="stop-color:#5577FF"/>
		</linearGradient>
		<path fill="url(#SVGID_8_)" d="M322.954,176.014c-4.829-1.652-3.826,7.641-5.866,14.518c-2.04,6.876-22.693,2.999-14.025,20.219
			c8.67,17.22-10.963,5.758-5.1,20.784c5.865,15.026,0.51,31.097,6.885,27.01s3.58-23.01,10.211-25.258
			c6.629-2.248,7.711-4.872,1.147-10.984c-6.564-6.112,17.201-12.181,11.335-24.521
			C321.677,185.438,328.531,177.925,322.954,176.014z"/>
		<path fill="#FFFFFF" d="M307.807,257.825c-0.605-2.572-5.791-25.21-0.954-27.947c4.264-2.411,4.159-11.793,3.493-20.651
			c-0.589-7.842,9.493-11.507,9.923-11.658l0.257,0.721c-0.1,0.036-9.961,3.623-9.416,10.881c0.683,9.098,0.756,18.75-3.881,21.372
			c-3.674,2.079-0.291,20.272,1.322,27.106L307.807,257.825z"/>
		
			<linearGradient id="SVGID_9_" gradientUnits="userSpaceOnUse" x1="289.5918" y1="63.1768" x2="318.7793" y2="63.1768" gradientTransform="matrix(1 0 0 -1 0 326)">
			<stop  offset="0" style="stop-color:#FF9340"/>
			<stop  offset="1" style="stop-color:#FFCE45"/>
		</linearGradient>
		<path fill="url(#SVGID_9_)" d="M318.779,249.764l-6.892,26.119h-15.403l-6.893-26.119H318.779z"/>
		
			<linearGradient id="SVGID_10_" gradientUnits="userSpaceOnUse" x1="289.5898" y1="63.1768" x2="318.7793" y2="63.1768" gradientTransform="matrix(1 0 0 -1 0 326)">
			<stop  offset="0" style="stop-color:#C97332"/>
			<stop  offset="1" style="stop-color:#FFCE45"/>
		</linearGradient>
		<path fill="url(#SVGID_10_)" d="M318.779,249.764c0,0-15.174,2.846-15.174,26.119h-7.123l-6.893-26.119H318.779z"/>
		<path fill="#3C4169" d="M77.667,194.55c0,0,0.677,12.267-1.577,14.062c-1.041,0.832-3.496,1.093-6.15,1.097
			c-0.873,0.001-1.768-0.026-2.641-0.071c-0.002,0-0.004,0-0.004,0c-3.485-0.174-6.616-0.615-6.616-0.615s-9.038,0.455-8.597-5.144
			c0,0,1.053-1.696,2.402-2.083c1.246-0.357,6.938,0.624,7.927,0.667c1.087,0.047,8.802,1.761,9.133,1.64
			c0.332-0.123,1.217-3.145,1.271-5.17c0.08-2.925,0.067-5.619,0.067-5.619L77.667,194.55z"/>
		<path fill="#252840" d="M29.767,311.021c0,0-0.76,1.826-1.399,2.551s-3.089,2.02-3.102,4.17c-0.014,2.333,4.13,1.685,5.75,1.601
			c1.62-0.085,1.743-1.331,2.425-2.653c0.683-1.319,1.37-1.097,1.498-2.16c0.128-1.065-0.522-3.449-0.522-3.449L29.767,311.021z"/>
		<path fill="#252840" d="M62.213,311.439c0,0,2.257,2.369,4.549,2.865c2.292,0.495,3.896,1.129,3.912,2.486
			c0.018,1.359-6.596,2.255-9.218,0.885c-3.914-2.045-4.312-1.428-4.746-2.449c-0.434-1.021,0.522-3.754,0.493-4.08
			C57.168,310.744,62.213,311.439,62.213,311.439z"/>
		<path fill="#292C47" d="M61.946,243.063c0,0,2.371,17.205,3.339,23.021c1.132,6.801,1.516,12.419,1.833,15.938
			c0.398,4.428-3.759,28.242-3.48,29.537c0.277,1.295-7.482-0.539-7.482-0.539s2.438-28.336,1.254-33.051
			c-1.102-4.39-5.075-23.687-6.082-22.486c-1.004,1.199-7.316,22.373-8.06,25.834c-0.744,3.463-7.921,30.568-7.921,30.568
			s-5.365,1.151-6.73,0.067c0,0,4.681-24.902,5.156-31.394c0.18-2.475,1.649-29.494,5.837-40.438
			C41.821,234.336,61.946,243.063,61.946,243.063z"/>
		<path fill="#C4B4AF" d="M0.005,195.453l0.436-6.461c0.09-1.329,1.24-2.333,2.571-2.244l13.879,0.932
			c1.331,0.09,2.335,1.238,2.247,2.567l-0.436,6.463c-0.09,1.329-1.241,2.332-2.571,2.244l-13.879-0.931
			C0.922,197.932-0.084,196.782,0.005,195.453z"/>
		<path fill="#EB4747" d="M100.263,205.001l0.813-12.08l-90.754-6.096l-0.813,12.08L100.263,205.001z"/>
		<path fill="#6880EB" d="M10.304,186.838l-0.271,4.026l90.755,6.097l0.271-4.025L10.304,186.838z"/>
		<path fill="#4A64E0" d="M100.538,200.982l0.271-4.026l-90.755-6.087l-0.271,4.025L100.538,200.982z"/>
		<path fill="#4860CF" d="M100.264,205.004l0.271-4.025l-90.754-6.097l-0.271,4.026L100.264,205.004z"/>
		<path fill="#EDDAD3" d="M100.256,205.007l0.814-12.081l13.139,5.71l3.377,1.468l-3.545,1.002L100.256,205.007z"/>
		<path fill="#DECCC6" d="M100.8,196.954c-1.08-0.072-1.894-1.032-1.818-2.146c0.076-1.11,1.01-1.955,2.09-1.883L100.8,196.954z"/>
		<path fill="#E3D1CA" d="M100.526,200.98c-1.08-0.071-1.894-1.032-1.818-2.146c0.076-1.11,1.01-1.954,2.09-1.882L100.526,200.98z"
			/>
		<path fill="#EDDAD3" d="M100.255,205.007c-1.08-0.071-1.894-1.032-1.818-2.146c0.076-1.111,1.01-1.954,2.09-1.883L100.255,205.007
			z"/>
		<path fill="#B39696" d="M7.181,186.626l-0.271,4.026l5.577,0.375l0.271-4.026L7.181,186.626z"/>
		<path fill="#DBB8B8" d="M12.233,195.049l0.271-4.025l-5.577-0.375l-0.271,4.025L12.233,195.049z"/>
		<path fill="#F2CBCB" d="M11.963,199.074l0.271-4.026l-5.577-0.374L6.386,198.7L11.963,199.074z"/>
		<path fill="#DECCC6" d="M100.799,196.953l16.786,3.15l-16.516-7.178L100.799,196.953z"/>
		<path fill="#E3D1CA" d="M100.527,200.98l17.059-0.877l-16.787-3.15L100.527,200.98z"/>
		<path fill="#EDDAD3" d="M100.528,200.98l17.058-0.877l-17.33,4.903L100.528,200.98z"/>
		<path fill="#323438" d="M114.041,201.107l0.167-2.472l3.378,1.468L114.041,201.107z"/>
		<path fill="#EFAA88" d="M73.811,190.516c0,0-0.472,2.086-0.018,2.664c0.452,0.579,0.664-0.164,0.664-0.164s-0.223,0.73,0.35,0.978
			c0.57,0.243,0.772-0.64,0.772-0.64s-0.018,0.602,0.626,0.633c0.645,0.033,0.643-0.74,0.643-0.74s0.45,0.867,0.972,0.266
			c0.882-1.014,0.531-2.549,0.531-2.549s-0.121-0.361-0.742-0.352c0,0-0.234-0.909-1.235-0.539c0,0-0.805-0.73-1.296,0.006
			C75.08,190.08,74.178,189.352,73.811,190.516z"/>
		<path fill="#FFAD55" d="M30.752,242.777c0,0,2.944,0.894,4.177,0.666c1.235-0.226,0.61-15.334,0.659-18.478
			c0.038-2.55,1.435-9.282,1.435-9.282s0,0.004,0.002,0.01c0.002,0.002,0.002,0.006,0.002,0.008c0,0.004,0.002,0.007,0.002,0.011
			c0.138,0.505,2.023,7.491,2.088,10.849c0.068,3.485-0.454,16.813-0.454,16.813l5.196,0.505l14.934,0.365l3.115-0.367
			c0,0-0.373-5.699-0.511-8.407c-0.086-1.721-0.421-4.801-0.335-7.8c0,0-0.054-3.164,0.259-4.524
			c0.034-6.012,0.398-11.965,0.398-11.965c0.202-2.728,0.342-5.275,0.423-7.652c-0.659-0.348-1.45-0.756-2.083-1.055
			c-1.961-0.933-4.692-2.188-6.444-2.992c-1.026-0.471-2.031-0.814-2.031-0.814s-7.005-0.67-7.572-0.634
			c-0.18,0.01-1.055,0.315-2.204,0.753c-2.484,0.941-7.271,2.859-8.035,3.406c-1.118,0.8-3.482,19.802-3.59,21.133
			C29.992,225.717,30.752,242.777,30.752,242.777z"/>
		<path fill="#1D2033" d="M61.458,241.495c0,0-10.251,0.872-19.228,0v2.942c0,0,13.483,1.943,19.678-0.562L61.458,241.495z"/>
		<path fill="#3C4169" d="M52.717,199.092c0,0,1.667,3.913,2.918,12.658c0.48,3.359,1.372,9.014,2.018,14.783v0.002
			c0.511,4.55,1.676,9.218,2.047,12.699c0.384,3.607,1.54,14.234,1.54,14.234l2.803-1.766c0.399-0.37,0.961-0.85,0.799-1.368
			c-0.771-2.487-2.247-10.707-3.118-17.871c0-0.005-0.002-0.009-0.002-0.014c-0.042-0.347-0.083-0.687-0.121-1.027
			c-0.002-0.016-0.003-0.036-0.005-0.054c-0.164-1.434-0.301-2.805-0.398-4.064c-0.076-0.964-0.007-1.906,0.126-2.826
			c0.391-6.431,0.585-13.211,0.585-13.211c0.205-2.775,0.716-6.367,0.794-8.783c-0.976-0.133-1.7-0.262-2.485-0.498
			C60.217,201.986,54.69,199.925,52.717,199.092z"/>
		<path fill="#EEA987" d="M49.129,180.623c0,0,5.201,0.875,4.319,9.009c-0.882,8.134-5.473,7.416-5.781,7.403
			c-0.308-0.012-4.618,0.099-4.845-9.846C42.822,187.189,42.756,179.838,49.129,180.623z"/>
		<path fill="#EEA987" d="M51.409,194.678c0,0,0,3.35,0.137,4.075c0.148,0.78-4.177,3.033-6.967,0.408c0,0,0.565-3.66,0.389-4.951
			C44.792,192.919,51.409,194.678,51.409,194.678z"/>
		<path fill="#EEA987" d="M53.467,187.738c0,0,0.578-0.603,0.779,0.016c0.204,0.619-0.73,3.234-0.851,3.482
			c0,0-0.106,0.238-0.243,0.105C53.017,191.209,53.467,187.738,53.467,187.738z"/>
		<path fill="#EEA987" d="M42.882,187.115c0,0-0.553-0.626-0.78-0.018c-0.229,0.61,0.603,3.348,0.708,3.517
			c0,0,0.178,0.28,0.32,0.153C43.271,190.641,42.882,187.115,42.882,187.115z"/>
		<path fill="#D88A51" d="M53.885,186.641c-0.18,1.114-0.35,1.941-0.35,1.941l-0.756,0.986c0,0,0.045-2.183-0.07-2.526
			c-0.043-0.129-0.095-0.358-0.147-0.608c-0.086-0.412-0.177-0.877-0.238-1.031c-0.097-0.248-4.458-1.52-8.341,0.267
			c0,0,0.033,0.336,0.031,0.71c-0.002,0.436-0.048,0.924-0.25,0.998c-0.373,0.137-0.216,2.555-0.216,2.555l-0.605-0.697
			c0,0-0.175-1.265-0.347-2.715c0,0,0-0.004-0.002-0.012c-0.04-0.338-0.079-0.688-0.117-1.031c-0.086-1.463,0.058-4.115,1.962-5.672
			c1.286-0.551,3.338-1.016,6.759,0.028c0,0,0.785,0.052,1.004,0.265C54.331,182.439,53.885,186.641,53.885,186.641z"/>
		<path fill="#C78D71" d="M45.322,195.949c0,0,0.83,1.15,2.758,1.107s2.765-1.048,2.765-1.048s-0.913,1.907-2.774,1.886
			C46.21,197.875,45.322,195.949,45.322,195.949z"/>
		<path fill="#A09EA6" d="M51.746,201.297l-1.941,1.434c0,0,1.622-3.453,1.656-4.834L51.746,201.297z"/>
		<path fill="#EAE6F2" d="M51.461,197.896l1.327,1.227l1.388,4.136l-2.43-1.962L51.461,197.896z"/>
		<path fill="#EEA987" d="M51.218,199.13c0,0-0.536,1.881-1.413,3.601c0,0-2.036-1.782-2.677-2.416
			C46.487,199.68,51.218,199.13,51.218,199.13z"/>
		<path fill="#A09EA6" d="M47.675,200.738l2.13,1.992c0,0-2.519-0.168-2.989-0.586L47.675,200.738z"/>
		<path fill="#EAE6F2" d="M44.85,197.068c0,0,1.705,2.767,2.827,3.67l-1.891,3.134l-3.032-5.499L44.85,197.068z"/>
		<path fill="#3C4169" d="M35.801,225.107c-0.218,2.918,1.019,19.063-0.214,19.289c-1.233,0.228-5.765-0.767-5.765-0.767
			s-0.569-17.411-0.385-19.235c0.133-1.33,2.25-21.254,3.368-22.055c0.646-0.462,5.43-2.156,7.778-3.08
			c0.429-0.169,1.788-0.738,2.173-0.885c0.499,0.555,4.836,10.721,5.248,18.65c0.126,2.416-0.441,7.513-0.871,11.677
			c-0.459,4.444-0.969,7.911-1.341,11.626c-0.734,7.32-1.25,13.145-1.25,13.145l-7.293-3.244c-1.181-0.59-2.814-3.01-2.371-4.25
			c1.687-4.718,3.81-12.776,3.812-16.916c0,0-0.814-10.136-1.458-12.363C37.229,216.697,36.079,221.398,35.801,225.107z"/>
		<path fill="#EFAA88" d="M29.804,251.919c0,0-0.247-0.603-0.227-0.917c0,0,0.081-0.57,0.115-0.98
			c0.011-0.131,0.016-0.246,0.013-0.319c-0.016-0.308-0.142-0.979,0.027-1.731c0.169-0.75,1.037-3.342,1.037-3.342l2.342,0.348
			l2.035-0.275c0,0,1.518,4.422,1.44,5.14c-0.007,0.07-0.018,0.138-0.032,0.203c-0.124,0.601-0.47,0.996-0.571,1.306
			c-0.038,0.113-0.49,1.211-0.828,1.316c-0.47,0.146-0.857,0.057-1.118-0.157c0,0-0.934,0.247-1.525-0.022
			c0,0-0.855,0.255-1.494-0.291C31.016,252.195,30.121,252.355,29.804,251.919z"/>
		<path fill="#3C4169" d="M35.993,233.27l-0.076,12.83c0,0-2.564-0.113-6.098-1.416l-0.245-18.095L35.993,233.27z"/>
		<path fill="#3A4066" d="M54.164,241.675h-4.832v3.587h4.832V241.675z"/>
		<path fill="#1D3B54" d="M281.891,302.344c0,0,0.834-1.359,1.977-1.892c1.142-0.53,3.486,1.321,3.691,2.353l2.715,3.956
			l-0.516,0.353L288.309,305c0.987,2.372,2.396,5.212,1.406,6.639c-1.329,1.916-4.344,3.854-5.14,3.519
			c-0.796-0.335-0.638-5.906-0.638-5.906C284.796,304.333,281.891,302.344,281.891,302.344z"/>
		<path fill="#DE9673" d="M281.891,302.344c0,0,0.988,1.901,1.498,3.377c0.508,1.475,0.604,5.561,0.924,5.844
			c0.32,0.285,2.846-0.988,3.183-2.517c0.337-1.526-0.688-4.58-1.662-6.187c-0.976-1.605-1.967-2.407-1.967-2.407
			S282.145,300.787,281.891,302.344z"/>
		<path fill="#DE9673" d="M272.141,266.543c0,0,1.547,8.202,1.547,10.164s0.535,5.17,1.783,7.547
			c1.25,2.377,6.734,18.619,7.209,20.512c0.475,1.891,0.885,3.678,0.885,3.678s2.736-1.248,2.736-3.031
			c0-1.784-2.381-16.521-2.796-19.434c-0.416-2.912-3.868-17.83-3.868-17.83L272.141,266.543z"/>
		<path fill="#EEA886" d="M280.889,266.009c0,0-0.535,6.835-0.476,8.617c0.06,1.784,0.894,5.824,0.894,6.894
			c0,1.07,0,23.235-0.889,25.91c-0.889,2.674,2.494,0.834,2.494,0.834s5.89-14.58,5.89-20.662s-0.714-9.113-0.297-12.976
			c0.416-3.862,2.269-8.948,2.269-8.948L280.889,266.009z"/>
		<path fill="#EB4747" d="M289.798,233.111c0,0,3.167,3.875,4,9.046c0.834,5.17-0.987,14.92-1.633,17.741
			c-0.567,2.475-1.653,10.397-1.712,11.229c0,0-10.646,1.205-18.738-1.351c0,0-0.74-11.064-1.217-15.76
			c-0.477-4.694,1.848-20.548,1.848-20.548L289.798,233.111z"/>
		<path fill="#1D3B54" d="M277.624,314.173c3.813-3.327,2.792-6.741,2.792-6.741s1.523-0.541,2.762-0.232
			c1.239,0.31,1.901,3.259,1.406,4.201l-0.385,4.843l-0.631-0.052l0.205-2.584c-0.735,2.496-1.435,5.627-3.125,6.123
			c-2.269,0.662-5.879,0.269-6.293-0.5C273.945,318.458,277.624,314.173,277.624,314.173z"/>
		<path fill="#754836" d="M275.385,196.896c0,0,0.943,5.61,0.129,7.496c-0.814,1.885,4.328-2.203,4.328-2.203
			S277.709,196.009,275.385,196.896z"/>
		<path fill="#754836" d="M277.289,181.311c0,0,8.26-1.888,9.288,6.928c1.03,8.814-2.688,9.923-0.171,15.896
			c2.515,5.973-6.143-1.947-6.143-1.947L277.289,181.311z"/>
		<path fill="#EEA886" d="M278.001,181.184c-2.121-0.043-6.787,1.152-7.353,6.779c0,0,0.213,1.507,0.612,2.684
			c0.399,1.176-0.565,4.707-0.282,4.871c0.282,0.166,1.437,0.353,1.437,0.353s1.343,3.789,2.687,3.719
			c1.342-0.069,6.401-1.263,8.662-6.089C286.027,188.677,286.563,181.355,278.001,181.184z"/>
		<path fill="#1D3B54" d="M301.102,250.979c0,0-0.197-3.393-1.097-3.918c-0.897-0.524-0.38,0.523-0.38,0.523s0.506,2.462,0.618,3.46
			C300.248,251.091,301.102,250.979,301.102,250.979z"/>
		<path fill="#EEA886" d="M296.941,243.342c0,0-0.25,1.521-0.713,2.987c-0.461,1.466-0.886,1.933-0.699,2.774
			c0.14,0.635,0.859,1.109,1.039,0.906c0.182-0.203,0.27-2.669,1.291-2.658c1.023,0.012-0.305,3.055,0.304,2.832
			c0.608-0.224,2.952-1.507,2.805-2.748c-0.147-1.244-1.086-2.141-1.024-3.998c0.054-1.686-0.469-2.389-0.469-2.389L296.941,243.342
			z"/>
		<path fill="#1D3B54" d="M297.758,247.248c0,0-1.361,0.347-1.281,4.947l1.543-0.256c0,0-0.029-2.543,0.432-3.93
			C298.451,248.012,298.374,247.111,297.758,247.248z"/>
		<path fill="#EDDAD3" d="M292.102,253.236l12.01-3.403l-0.033,14.774l-11.953,7.153L292.102,253.236z"/>
		<path fill="#EDDAD3" d="M292.125,271.761l1.503,0.277l11.627-7.22l-0.144-14.918l-1-0.067L292.125,271.761z"/>
		<path fill="#EB4747" d="M276.857,201.909c0,0-3.2,1.312-3.773,1.713c-0.573,0.399-1.716,5.024-2,5.426
			c-0.286,0.399-3.048,3.83-2.665,6.608c0.302,2.185,1.536,3.341,2.337,4.197c0.801,0.855,1.541,5.467,1.793,6.151
			s-0.547,9.681-0.547,9.681s9.393,3.651,17.797-2.572c0,0-1.678-6.022-1.678-7.106c0-1.085,1.085-8.735,4.002-13.248
			c2.915-4.51-0.516-9.308-2.744-9.878s-6.518-2.17-6.518-2.17L276.857,201.909z"/>
		<path fill="#EB4747" d="M287.107,202.198c0,0,4.701-0.289,7.059,2.45c2.359,2.742,2.229,5.996,2.83,7.41
			c0.6,1.412,1.975,7.494,2.271,8.479c0.301,0.984,0.594,6.52,1.021,10.974c0.429,4.455,0.342,12.772,0.342,12.772l-4.499-0.815
			c0,0-0.182-7.929-0.295-12.524c-0.112-4.596-3.858-12.719-5.272-16.274C289.15,211.116,283.518,204.428,287.107,202.198z"/>
		<path fill="#EB4747" d="M273.551,203.361c0,0-2.066,0.132-3.053,2.187c-0.987,2.056-1.363,3.767-1.62,4.28
			c-0.258,0.515-3.823,7.283-4.039,8.783c-0.214,1.5,0.128,4.24,2.015,4.968c1.888,0.729,8.662,0.813,8.662,0.813
			s-1.716-3.481-0.127-5.279c0,0-4.918-0.887-6.08-1.006C268.078,217.982,275.109,204.902,273.551,203.361z"/>
		<path fill="#1D3B54" d="M284.814,209.174l-9.16,21.368l-11.422-5.373l8.447-20.522L284.814,209.174z"/>
		<path fill="#EEA886" d="M279.559,219.672c0,0,1.24,0.329,1.633,0.387s-0.094,0.784-0.574,0.806
			C280.135,220.886,279.559,219.672,279.559,219.672z"/>
		<path fill="#EEA886" d="M278.729,225.753c0,0-0.576-0.028-0.821-0.163c0,0-0.429-0.281-0.743-0.461
			c-0.102-0.057-0.189-0.104-0.251-0.129c-0.254-0.104-0.839-0.254-1.379-0.673c-0.538-0.417-2.29-2.084-2.29-2.084l1.158-1.742
			l0.895-1.39c0,0,3.764,0.104,4.311,0.436c0.055,0.033,0.105,0.067,0.152,0.104c0.436,0.324,0.623,0.75,0.831,0.945
			c0.076,0.072,0.787,0.848,0.744,1.158c-0.06,0.432-0.274,0.707-0.546,0.834c0,0-0.153,0.84-0.592,1.212
			c0,0-0.117,0.779-0.795,1.086C279.402,224.886,279.195,225.663,278.729,225.753z"/>
		<path fill="#EB4747" d="M275.385,219.113c0,0-5.576-0.997-7.117-1.158c0,0-0.105-1.955,0.176-3.611s1.644-3.879,1.644-3.879
			l-2.853,2.609c0,0-2.344,4.488-2.397,5.537c-0.052,1.05-0.331,2.668,1.058,4.31c1.388,1.642,7.938,0.89,7.938,0.89
			S273.284,221.797,275.385,219.113z"/>
		<path fill="#EEA886" d="M277.102,198.695c0,0,0.181,0.531,0.391,1.322c0.107,0.404,0.223,0.873,0.326,1.375
			c0.283,1.389,0.472,3.016,0.141,4.11c0,0,3.001,0.944,5.23-3.315c0,0-1.137-4.49,0.097-7.269
			C284.52,192.145,277.102,198.695,277.102,198.695z"/>
		<path fill="#754836" d="M270.648,187.963c0,0,3.504,2.244,6.929,2.62c3.424,0.376,5.329,5.55,5.329,5.55s5.385-8.375,1.049-13.521
			C279.618,177.465,269.723,181.45,270.648,187.963z"/>
		<path fill="#EEA886" d="M278.991,190.387c0-0.66,0.707-1.67,1.815-0.8c1.106,0.871-0.261,4.048-1.154,3.767
			C278.755,193.07,278.991,191.068,278.991,190.387z"/>
		<path fill="#EEA886" d="M276.669,201.986c0,0-1.411,4.16,1.89,4.139c3.303-0.021,4.739-2.614,5.683-4.914
			c0,0-1.523-0.738-2.229-0.845C281.303,200.259,276.669,201.986,276.669,201.986z"/>
		<path fill="#1D3B54" d="M296.473,251.997l1.549,0.201l-0.002-0.722L296.473,251.997z"/>
		<path fill="#1D3B54" d="M300.23,250.934l0.855,0.1c0,0,0.003-0.258-0.004-0.344C301.073,250.607,300.259,250.88,300.23,250.934z"
			/>
		<path fill="#EEA886" d="M280.418,307.43c0,0-0.434,2.127-0.975,3.612c-0.539,1.485-3.07,4.765-2.998,5.192
			s2.873,1.031,4.111,0.043c1.24-0.989,2.381-4.045,2.637-5.93c0.255-1.886,0.119-3.103,0.119-3.103S281.609,306.365,280.418,307.43
			z"/>
		<path fill="#A77860" d="M277.227,199.127c0.108,0.404,0.267,0.891,0.391,1.372c2.712-1.829,4.01-3.999,4.01-3.999
			C280.089,197.969,277.227,199.127,277.227,199.127z"/>
		<path fill="#5C544D" d="M166.935,251.605c0,0-0.657,2.578-0.747,2.967c-0.09,0.388-4.137-0.682-4.137-0.682l0.003-3.154
			C162.056,250.738,166.462,251.182,166.935,251.605z"/>
		<path fill="#3C4145" d="M166.268,254.245c0,0,1.133,1.719,2.321,2.542c1.186,0.824,5.767,1.89,6.437,2.682
			c0.482,0.571,1.154,2.736-6.195,1.749c-5.221-0.702-7.797-0.524-8.267-1.433s1.489-6.176,1.489-6.176
			S163.168,254.216,166.268,254.245z"/>
		<path fill="#F0C141" d="M167.794,325l14.668-149.285l-1.849-0.179l-14.668,149.286L167.794,325z"/>
		<path fill="#F0C141" d="M137.888,322.102l14.669-149.285l-1.849-0.18l-14.669,149.286L137.888,322.102z"/>
		<path fill="#F0C141" d="M151.373,175.238l-0.18,1.847l29.905,2.896l0.18-1.847L151.373,175.238z"/>
		<path fill="#F0C141" d="M150.023,189.128l-0.179,1.847l29.905,2.896l0.179-1.848L150.023,189.128z"/>
		<path fill="#F0C141" d="M148.678,203.016l-0.18,1.848l29.904,2.898l0.181-1.847L148.678,203.016z"/>
		<path fill="#F0C141" d="M147.326,216.902l-0.18,1.848l29.906,2.9l0.179-1.849L147.326,216.902z"/>
		<path fill="#F0C141" d="M145.976,230.792l-0.179,1.847l29.905,2.899l0.179-1.847L145.976,230.792z"/>
		<path fill="#F0C141" d="M144.625,244.68l-0.18,1.846l29.905,2.899l0.18-1.847L144.625,244.68z"/>
		<path fill="#F0C141" d="M143.273,258.573l-0.179,1.847l29.905,2.896l0.179-1.848L143.273,258.573z"/>
		<path fill="#F0C141" d="M141.939,272.484l-0.179,1.847l29.905,2.899l0.179-1.848L141.939,272.484z"/>
		<path fill="#F0C141" d="M140.574,286.352l-0.179,1.847l29.905,2.896l0.179-1.847L140.574,286.352z"/>
		<path fill="#F0C141" d="M139.222,300.239l-0.179,1.847l29.905,2.896l0.179-1.848L139.222,300.239z"/>
		<path fill="#F0C141" d="M137.873,314.129l-0.18,1.848l29.905,2.896l0.18-1.847L137.873,314.129z"/>
		<path fill="#3C4145" d="M171.93,197.311c0,0,2.945,10.926,3.723,14.832c0.678,3.402,2.039,12.467,2.231,14.621
			s-8.696,23.012-9.621,26.779l-8.099-1.298c0,0,8.545-21.708,6.316-26.531c-3.314-7.173-3.746-6.958-6.359-12.868
			c-2.612-5.91-8.589-6.05-10.195-17.015C149.926,195.827,169.757,193.833,171.93,197.311z"/>
		<path fill="#EEA886" d="M157.527,144.225c0,0,5.378-2.007,7.857,2.082c2.479,4.089,2.242,12.275-0.47,13.28
			c-2.711,1.007-6.782,0.48-8.17-2.079c-1.388-2.558-2.641-6.257-2.58-8.728C154.224,146.309,156.116,144.939,157.527,144.225z"/>
		<path fill="#EEA886" d="M164.012,159.337c0,0-0.218,1.408,0.143,2.102c0.36,0.695-6.764,0.713-6.764,0.713
			s-0.578-3.773-1.675-6.96C154.618,152.004,164.012,159.337,164.012,159.337z"/>
		<path fill="#3A3F47" d="M155.715,155.19c0,0,0.492,0.809,2.499,0.497c2.008-0.315,4.456-2.982,5.293-3.275
			s0.846-0.784,0.846-0.784l0.524,0.766l0.89,0.056c0,0-0.812-2.387,0.412-3.359c1.224-0.973-1.271-7.722-7.707-5.474
			c0,0-4.944,1.361-4.764,4.168C153.89,150.594,154.61,153.793,155.715,155.19z"/>
		<path fill="#EEA886" d="M164.221,150.606c-0.114-0.471-1.313-1.816-1.772-0.376c-0.459,1.441,0.693,3.379,1.336,3.214
			C164.429,153.279,164.505,151.8,164.221,150.606z"/>
		<path fill="#FFD255" d="M143.711,179.875c0.06,0.705,0.865,1.467,1.414,1.843c0.351,0.241,0.772,0.388,1.226,0.403l0.318,0.011
			l5.589,0.19c0,0,4.155-13.411-3.639-18.525C148.378,163.818,143.169,173.41,143.711,179.875z"/>
		<path fill="#3C4145" d="M160.563,259.785c0.469,0.91,3.046,0.732,8.267,1.433c1.426,0.192,2.551,0.267,3.434,0.255l0.303-3.139
			c-1.527-0.531-3.302-1.077-3.978-1.549c-1.187-0.823-2.321-2.542-2.321-2.542c-3.1-0.027-4.217-0.636-4.217-0.636
			S160.094,258.875,160.563,259.785z"/>
		<path fill="#FFD255" d="M164.016,161.029c0,0-4.386-1.02-6.856-0.185l-0.372,0.345c0,0-0.751,1.439,2.075,1.563
			C161.69,162.876,166.135,163.081,164.016,161.029z"/>
		<path fill="#5C544D" d="M146.88,263.665c0,0-0.657,2.579-0.747,2.968c-0.09,0.389-4.137-0.682-4.137-0.682l0.004-3.154
			C142,262.797,146.405,263.241,146.88,263.665z"/>
		<path fill="#3C4145" d="M149.926,195.827c0,0-1.476,6.082-1.914,12.171c-0.403,5.626-1.139,11.798-1.723,17.682
			c-0.651,6.561-2.509,17.166-2.607,20.674c-0.097,3.51-3.053,18.847-3.053,18.847l7.565,0.868c0,0,4.915-27.102,6.076-29.873
			c1.162-2.771,6.917-22.521,7.11-24.738C161.573,209.242,149.926,195.827,149.926,195.827z"/>
		<path fill="#3C4145" d="M146.214,266.304c0,0,1.132,1.72,2.32,2.544c1.187,0.822,5.767,1.889,6.437,2.683
			c0.482,0.571,1.154,2.735-6.195,1.749c-5.221-0.703-7.798-0.525-8.268-1.434c-0.47-0.908,1.489-6.175,1.489-6.175
			S143.113,266.277,146.214,266.304z"/>
		<path fill="#FFD255" d="M173.46,210.957c0.644-0.092-1.599-19.273-1.428-20.479c0.114-0.802,0.097-7.037,0.05-10.922l0.702-3.933
			c0.391-0.285,0.915-0.614,1.542-0.974c0.975-0.563,2.197-1.205,3.557-1.883c-0.158-0.93-0.268-1.66-0.31-2.088
			c-0.339-3.453-2.662-5.285-3.978-6.056c-0.539-0.315-0.908-0.452-0.908-0.452c-0.5-0.212-0.992-0.417-1.47-0.613
			c-3.172-1.304-7.201-2.527-7.201-2.527h-6.473c0,0-4.927,0.983-7.864,2.183c-0.376,0.154-0.729,0.351-1.06,0.581l0.879,18.432
			c0,0.004,0.001,0.008,0.001,0.013c0,0.006,0.002,0.015,0.004,0.024c0.396,2.592,0.814,5.65,0.952,7.797
			c0.058,0.875-0.945,5.578-1.469,9.894l-1.831,10.327C147.156,210.281,148.215,214.561,173.46,210.957z"/>
		<path fill="#EEA886" d="M206.507,151.178c0,0-0.382,0.473-0.649,0.599c0,0-0.506,0.191-0.857,0.347
			c-0.111,0.05-0.207,0.097-0.266,0.133c-0.246,0.151-0.74,0.558-1.433,0.757c-0.69,0.2-3.817,0.91-3.817,0.91l-0.729-1.854
			l-0.521-1.496c0,0,2.895-3.746,3.518-4.005c0.063-0.025,0.123-0.048,0.182-0.064c0.549-0.169,1.028-0.065,1.328-0.121
			c0.109-0.02,1.211-0.144,1.45,0.086c0.331,0.319,0.433,0.675,0.375,0.984c0,0,0.621,0.653,0.666,1.257
			c0,0,0.593,0.584,0.435,1.352C206.188,150.063,206.721,150.723,206.507,151.178z"/>
		<path fill="#FFD255" d="M172.991,175.477c0.722-0.465,1.655-1.094,4.891-2.711c6.022-3.01,13.456-8.464,14.871-9.252
			c2.173-1.212,9.04-9.591,9.04-9.591c-0.355-1.263-3.609-3.797-3.609-3.797s-10.41,9.849-12.686,11.061
			c-1.957,1.042-11.62,2.095-14.282,2.37c-0.432,0.045-0.681,0.067-0.681,0.067C167.757,167.413,171.439,176.475,172.991,175.477z"
			/>
	</g>
</g>
</svg>
